<?xml version="1.0" encoding="UTF-8" standalone="no"?>
<!DOCTYPE svg PUBLIC "-//W3C//DTD SVG 1.1//EN" "http://www.w3.org/Graphics/SVG/1.1/DTD/svg11.dtd">
<svg width="100%" height="100%" viewBox="0 0 122 99" version="1.1" xmlns="http://www.w3.org/2000/svg" xmlns:xlink="http://www.w3.org/1999/xlink" xml:space="preserve" xmlns:serif="http://www.serif.com/" style="fill-rule:evenodd;clip-rule:evenodd;stroke-linejoin:round;stroke-miterlimit:1.41421;">
    <g id="Artboard1" transform="matrix(0.358235,0,0,0.3952,0,0)">
        <rect x="0" y="0" width="340" height="250" style="fill:none;"/>
        <clipPath id="_clip1">
            <rect x="0" y="0" width="340" height="250"/>
        </clipPath>
        <g clip-path="url(#_clip1)">
            <g transform="matrix(5.66762,0,0,5.13751,-0.0574579,0.102132)">
                <g>
                    <path d="M46.42,0.75C46.739,1.159 47.532,2.157 48.122,2.976C49.418,4.702 52.166,7.359 52.437,7.178C52.779,6.995 51.462,3.884 50.666,2.93C49.759,1.84 48.577,1.045 47.011,0.455L45.783,0L46.42,0.75Z" style="fill:rgb(232,234,237);fill-rule:nonzero;"/>
                    <path d="M11.469,1.294C10.106,1.998 8.743,3.248 8.176,4.337C7.767,5.155 6.995,7.54 7.108,7.654C7.29,7.835 10.333,4.814 11.128,3.679C11.628,2.975 12.332,2.02 12.741,1.544C13.332,0.84 13.377,0.704 13.013,0.704C12.785,0.704 12.104,0.976 11.469,1.294Z" style="fill:rgb(232,234,237);fill-rule:nonzero;"/>
                    <path d="M52.075,3.384C52.552,3.928 53.641,7.04 54.164,9.402L54.3,10.061L53.71,9.47C53.392,9.152 52.529,8.448 51.824,7.926C51.121,7.403 50.076,6.562 49.531,6.064C48.645,5.224 48.555,5.178 48.713,5.7C49.099,7.199 49.893,8.289 51.53,9.629C52.484,10.401 53.732,11.514 54.301,12.104C54.891,12.717 55.437,13.195 55.505,13.195C55.573,13.195 55.641,11.923 55.641,10.355C55.641,7.857 55.572,7.38 55.094,6.29C54.506,4.951 53.052,3.36 52.256,3.134C51.779,3.021 51.757,3.043 52.075,3.384Z" style="fill:rgb(232,234,237);fill-rule:nonzero;"/>
                    <path d="M5.859,4.747C4.338,6.382 4.11,7.336 4.269,11.9L4.315,13.672L5.95,12.127C9.448,8.812 10.128,8.039 10.628,6.972C10.924,6.382 11.083,5.814 11.014,5.746C10.946,5.654 10.56,5.927 10.151,6.336C9.741,6.723 8.856,7.517 8.152,8.085C7.426,8.63 6.471,9.538 6.017,10.061C5.54,10.605 5.245,10.833 5.336,10.583C5.426,10.333 5.699,9.265 5.949,8.198C6.198,7.131 6.652,5.678 6.948,4.951C7.63,3.294 7.268,3.225 5.859,4.747Z" style="fill:rgb(232,234,237);fill-rule:nonzero;"/>
                    <path d="M56.458,11.81C56.366,14.058 56.366,16.17 56.435,16.533L56.548,17.169L56.298,16.602C56.138,16.284 55.844,15.625 55.595,15.102C55.345,14.534 54.391,13.467 53.074,12.287C51.939,11.242 51.122,10.538 51.28,10.697C51.417,10.879 51.553,11.288 51.553,11.605C51.553,12.264 52.893,14.603 54.413,16.624C54.959,17.328 55.709,18.51 56.072,19.259C56.731,20.576 56.731,20.576 56.889,19.895C56.981,19.509 57.251,18.601 57.479,17.85C58.297,15.398 58.41,14.694 58.319,12.627C58.251,11.15 58.07,10.265 57.707,9.402C56.731,7.177 56.639,7.358 56.458,11.81Z" style="fill:rgb(232,234,237);fill-rule:nonzero;"/>
                    <path d="M2.385,9.22C1.635,10.833 1.272,12.764 1.453,14.33C1.544,15.011 1.998,16.738 2.475,18.168L3.361,20.78L3.884,19.645C4.156,19.031 4.883,17.828 5.497,16.987C6.904,15.034 8.086,12.854 8.29,11.855L8.449,11.083L7.063,12.287C5.45,13.718 4.406,15.102 3.838,16.579L3.452,17.623L3.43,15.125C3.407,13.74 3.316,12.014 3.203,11.242C3.089,10.492 3.066,9.448 3.18,8.926C3.407,7.609 3.088,7.744 2.385,9.22Z" style="fill:rgb(232,234,237);fill-rule:nonzero;"/>
                    <path d="M59.273,15.693C59.273,16.442 58.774,18.078 57.82,20.462C57.387,21.529 56.912,22.847 56.754,23.391L56.458,24.39L56.185,22.915C56.027,22.097 55.731,21.075 55.527,20.667C54.89,19.462 53.324,16.828 53.164,16.714C52.71,16.442 53.868,22.187 54.662,24.208C54.845,24.709 55.073,25.889 55.163,26.821L55.3,28.524L57.024,26.184C59.319,23.073 59.819,21.642 59.819,18.417C59.819,17.032 59.705,15.829 59.546,15.578C59.296,15.148 59.296,15.148 59.273,15.693Z" style="fill:rgb(232,234,237);fill-rule:nonzero;"/>
                    <path d="M0.318,16.26C-0.023,17.01 0.136,21.12 0.545,22.528C0.931,23.8 1.385,24.549 3.521,27.253L4.656,28.683L4.814,27.344C4.883,26.617 5.314,24.687 5.746,23.051C6.2,21.438 6.609,19.349 6.7,18.418L6.836,16.714L6.132,17.964C4.247,21.348 3.838,22.416 3.816,23.959C3.793,24.777 3.702,25.391 3.589,25.322C3.498,25.254 3.407,25.003 3.407,24.754C3.407,24.255 2.544,21.394 2.271,21.029C1.954,20.575 0.864,17.6 0.704,16.714C0.545,15.943 0.5,15.874 0.318,16.26Z" style="fill:rgb(232,234,237);fill-rule:nonzero;"/>
                    <path d="M6.268,26.367C5.836,29.183 5.904,30.795 6.518,32.271C6.881,33.157 6.722,33.044 5.723,31.635C5.337,31.089 4.179,29.727 3.134,28.614C2.089,27.479 0.976,26.071 0.636,25.503C0.023,24.459 0,24.436 0,25.117C0,26.934 0.931,29.251 2.361,30.909C3.542,32.316 8.675,35.927 9.016,35.61C9.084,35.541 8.971,35.155 8.766,34.769C8.448,34.111 8.267,33.021 7.721,28.411C7.426,25.981 7.017,23.892 6.835,23.756C6.745,23.71 6.495,24.89 6.268,26.367Z" style="fill:rgb(232,234,237);fill-rule:nonzero;"/>
                    <path d="M52.96,24.028C52.687,24.505 52.323,27.025 52.007,30.364C51.779,32.862 51.666,33.475 51.303,34.361C51.167,34.701 51.099,35.065 51.121,35.2C51.279,35.61 55.254,32.861 56.821,31.295C58.773,29.318 59.727,27.434 59.885,25.299L60,23.754L59.41,24.98C59.069,25.639 58.116,26.911 57.275,27.82C56.411,28.705 55.367,29.886 54.936,30.453C54.526,31.021 54.095,31.567 53.982,31.702C53.891,31.816 53.665,32.134 53.459,32.384C53.163,32.793 53.163,32.747 53.459,32.043C54.254,30.045 54.299,29.204 53.823,26.411C53.55,24.957 53.3,23.731 53.254,23.685C53.21,23.641 53.073,23.801 52.96,24.028Z" style="fill:rgb(232,234,237);fill-rule:nonzero;"/>
                    <path d="M49.918,30.841C49.349,31.681 48.668,33.044 48.396,33.862C48.101,34.679 47.783,35.542 47.691,35.792C47.578,36.042 47.329,36.746 47.103,37.336C46.898,37.948 46.421,38.857 46.057,39.357C45.694,39.857 45.445,40.311 45.489,40.379C45.761,40.651 50.621,39.449 51.894,38.79C53.326,38.064 55.232,36.497 56.164,35.224C56.936,34.18 57.686,32.795 57.686,32.364C57.686,32.295 57.094,32.772 56.367,33.431C55.573,34.156 54.211,35.065 53.007,35.656C51.893,36.225 50.44,36.996 49.805,37.427C49.146,37.837 48.601,38.131 48.601,38.086C48.601,38.018 48.942,37.292 49.372,36.428C49.85,35.476 50.258,34.226 50.417,33.18C50.553,32.25 50.781,31.023 50.894,30.478C51.03,29.933 51.077,29.457 51.03,29.387C50.962,29.342 50.462,30.001 49.918,30.841Z" style="fill:rgb(232,234,237);fill-rule:nonzero;"/>
                    <path d="M9.197,31.022C9.538,34.021 10.197,36.224 11.15,37.563C11.65,38.267 12.172,38.857 12.309,38.857C12.445,38.857 12.513,38.903 12.445,38.971C12.377,39.04 11.628,38.63 10.764,38.063C9.902,37.472 8.177,36.518 6.904,35.905C5.246,35.11 4.292,34.474 3.407,33.589C2.453,32.636 2.248,32.499 2.385,32.953C2.726,34.111 4.633,36.655 5.859,37.608C7.017,38.54 8.358,39.289 9.425,39.653C10.151,39.902 14.421,40.651 14.511,40.539C14.557,40.493 14.353,40.062 14.057,39.607C13.444,38.653 12.899,37.427 11.786,34.543C11.083,32.681 10.401,31.408 9.493,30.227L9.038,29.66L9.197,31.022Z" style="fill:rgb(232,234,237);fill-rule:nonzero;"/>
                    <path d="M43.944,37.994C42.604,39.288 41.355,40.424 41.15,40.538C40.924,40.651 40.652,40.878 40.492,41.014C40.356,41.151 39.652,41.469 38.947,41.673C38.244,41.901 37.721,42.128 37.767,42.173C37.813,42.218 38.313,42.355 38.857,42.468C39.403,42.581 40.765,42.899 41.877,43.149C45.534,43.989 47.873,43.672 50.417,41.991C51.757,41.106 53.073,39.856 52.87,39.652C52.801,39.584 52.303,39.788 51.757,40.083C50.394,40.833 49.395,41.061 46.33,41.333C44.899,41.469 43.309,41.628 42.81,41.719L41.901,41.855L42.968,41.173C44.126,40.423 45.285,39.015 45.806,37.721C45.965,37.29 46.237,36.699 46.375,36.427C46.919,35.315 46.26,35.745 43.944,37.994Z" style="fill:rgb(232,234,237);fill-rule:nonzero;"/>
                    <path d="M13.399,36.042C13.399,36.132 13.83,37.041 14.352,38.04C15.375,40.039 16.532,41.243 17.895,41.72C18.917,42.083 18.781,42.083 16.578,41.811C15.647,41.674 13.762,41.47 12.422,41.357C10.605,41.198 9.629,40.993 8.697,40.561C7.994,40.244 7.381,40.017 7.335,40.062C7.085,40.334 9.447,42.22 10.901,42.923C12.491,43.674 12.763,43.741 14.762,43.719C16.374,43.719 17.555,43.56 19.417,43.082C20.802,42.718 22.006,42.356 22.097,42.265C22.21,42.174 21.847,41.992 21.302,41.856C19.985,41.515 18.895,40.72 16.147,38.177C13.899,36.086 13.399,35.678 13.399,36.042Z" style="fill:rgb(232,234,237);fill-rule:nonzero;"/>
                    <path d="M24.414,42.582C23.801,42.741 22.097,43.354 20.666,43.944C17.214,45.376 14.784,45.579 12.377,44.649C11.445,44.285 13.286,45.693 14.534,46.284C15.602,46.807 16.079,46.874 17.941,46.874C20.44,46.874 21.234,46.601 23.981,44.762C25.98,43.399 26.979,42.945 27.934,42.945C28.933,42.945 28.774,43.263 27.389,43.989C25.617,44.92 22.483,47.464 22.483,47.963C22.483,48.19 22.665,48.463 22.869,48.6C23.188,48.758 23.596,48.508 24.982,47.192C26.957,45.283 29.342,43.627 30.092,43.627C30.819,43.627 33.203,45.262 35.111,47.079C35.997,47.943 36.814,48.623 36.928,48.623C37.041,48.623 37.314,48.419 37.54,48.169C37.903,47.738 37.881,47.693 37.291,47.125C36.405,46.285 33.68,44.377 32.544,43.809C31.727,43.4 31.613,43.286 31.931,43.106C32.613,42.719 33.862,43.151 35.951,44.468C37.108,45.194 38.29,45.922 38.608,46.057C41.174,47.261 44.512,46.966 46.988,45.331C48.146,44.559 48.192,44.196 47.102,44.65C45.421,45.354 42.286,45.058 39.857,43.969C36.519,42.47 34.814,42.106 32.385,42.379C30.431,42.583 29.955,42.583 27.48,42.424C26.208,42.332 25.163,42.377 24.414,42.582Z" style="fill:rgb(232,234,237);fill-rule:nonzero;"/>
                    <g id="path255418" transform="matrix(0.46388,0,0,0.46388,-142.896,36.0274)">
                        <path d="M398.386,-50.472L413.722,-50.472L396.658,0L381.25,0L372.754,-32.328L363.97,0L348.634,0L331.714,-50.472L347.698,-50.472L356.77,-15.408L365.77,-50.472L380.386,-50.472L389.458,-15.48L398.386,-50.472Z" style="fill:rgb(232,234,237);fill-rule:nonzero;"/>
                    </g>
                </g>
            </g>
        </g>
    </g>
</svg>
